<svg version="1.1" id="Layer_1" xmlns="http://www.w3.org/2000/svg" xmlns:xlink="http://www.w3.org/1999/xlink" x="0px" y="0px"
	 width="100%" viewBox="0 0 2202 2196" enable-background="new 0 0 2202 2196" xml:space="preserve">
<path fill="#828282" opacity="1.000000" stroke="none" 
	d="
M1768.000000,1.999997 
	C1913.275879,2.000000 2058.551758,2.000000 2204.000000,2.000000 
	C2204.000000,569.385010 2204.000000,1136.770020 2203.364258,1705.299316 
	C2197.552246,1712.076660 2192.394043,1717.726196 2187.196289,1723.339600 
	C2169.117188,1742.863281 2151.000977,1762.352539 2132.943359,1781.895752 
	C2110.374268,1806.321289 2087.869873,1830.806396 2065.299072,1855.230103 
	C2047.239746,1874.772095 2029.095703,1894.235840 2011.038208,1913.779663 
	C1988.469849,1938.205444 1965.974609,1962.698975 1943.404419,1987.123047 
	C1925.345337,2006.665283 1907.183716,2026.112915 1889.135376,2045.665283 
	C1867.030151,2069.612549 1845.041504,2093.667480 1822.916748,2117.596436 
	C1804.626099,2137.378906 1786.124878,2156.967285 1767.898804,2176.808594 
	C1761.649170,2183.612305 1755.950317,2190.921631 1750.000000,2198.000000 
	C1167.514526,2198.000000 585.029175,2198.000000 2.000000,2198.000000 
	C2.000000,1875.281860 2.000000,1552.563477 2.687823,1229.167480 
	C6.644723,1225.749756 10.144426,1223.240356 13.149735,1220.236450 
	C160.919586,1072.537231 308.676788,924.825256 456.261017,776.940674 
	C461.690735,771.499817 467.127136,769.508118 474.630829,769.520691 
	C587.924927,769.711182 701.219604,769.700195 814.513916,769.571899 
	C824.722229,769.560364 834.929260,768.414673 846.333130,767.723145 
	C846.333130,763.046448 846.333130,758.808655 846.333130,754.570862 
	C846.333252,660.603088 846.442261,566.635010 846.146545,472.668182 
	C846.120056,464.281372 848.637634,458.559143 854.528320,452.681091 
	C1000.534546,306.988434 1146.349731,161.104370 1292.198486,15.253854 
	C1294.318970,13.133347 1296.604980,11.148857 1298.509521,8.848887 
	C1301.556641,5.168828 1305.335571,4.131899 1309.981567,4.239079 
	C1317.295532,4.407810 1324.621826,4.036774 1332.882324,3.953280 
	C1336.154053,4.005307 1338.486572,3.992208 1340.818970,3.992188 
	C1478.767090,3.990995 1616.715210,4.009463 1754.663208,3.906966 
	C1759.109375,3.903663 1763.554443,2.663549 1768.000000,1.999997 
M921.877563,503.751923 
	C921.813660,517.748108 921.694763,531.744263 921.694092,545.740479 
	C921.682800,786.042847 921.682068,1026.345215 921.714539,1266.647583 
	C921.715210,1271.522705 922.139709,1276.397827 922.425293,1282.536743 
	C928.299500,1282.536743 933.210510,1282.536011 938.121460,1282.536865 
	C1142.761719,1282.571899 1347.401855,1282.608276 1552.042114,1282.640869 
	C1593.703369,1282.647583 1635.364746,1282.668457 1677.025879,1282.596924 
	C1681.195801,1282.589722 1685.364746,1281.983154 1689.922607,1281.624146 
	C1689.922607,1025.702026 1689.922607,770.891296 1689.922607,515.126465 
	C1684.369141,514.868347 1679.479370,514.442017 1674.589600,514.442749 
	C1515.276978,514.467712 1355.963989,514.431641 1196.652222,514.825439 
	C1186.109253,514.851501 1178.581055,513.293396 1176.308960,500.124756 
	C1176.738647,480.560516 1177.168457,460.996277 1177.623291,440.289185 
	C1182.335083,440.289185 1185.911133,440.289581 1189.487183,440.289093 
	C1234.816406,440.283112 1280.145508,440.284515 1325.474731,440.269348 
	C1451.463257,440.227203 1577.451660,440.157379 1703.440186,440.197632 
	C1709.317261,440.199524 1714.010132,439.263794 1718.559937,434.693481 
	C1835.431030,317.299103 1952.475342,200.077271 2069.461670,82.797562 
	C2071.196045,81.058861 2072.577637,78.968437 2075.180420,75.725357 
	C2069.193115,75.725357 2064.921631,75.711121 2060.650391,75.727394 
	C1822.675293,76.634094 1584.700195,77.575356 1346.724487,78.306702 
	C1339.129883,78.330040 1333.749268,80.577003 1328.393555,85.939316 
	C1224.994019,189.467178 1121.421265,292.822021 1017.888062,396.216370 
	C990.294922,423.772461 962.710022,451.336884 935.131897,478.907990 
	C928.683716,485.354584 923.339172,492.439392 921.877563,503.751923 
M1764.018433,1830.167358 
	C1764.132690,1835.830444 1764.343140,1841.493408 1764.346558,1847.156494 
	C1764.387329,1915.150024 1764.385010,1983.143677 1764.445679,2051.137207 
	C1764.449463,2055.305420 1764.886963,2059.472900 1765.272461,2066.289062 
	C1769.526123,2062.421875 1771.999878,2060.490723 1774.101440,2058.215576 
	C1826.784424,2001.186646 1879.416016,1944.110229 1932.082520,1887.066162 
	C1972.995972,1842.752319 2013.947632,1798.473511 2054.875732,1754.172974 
	C2078.618408,1728.473999 2102.287598,1702.706299 2126.144043,1677.113159 
	C2130.048096,1672.924927 2132.137939,1668.464844 2131.790283,1662.778931 
	C2131.648193,1660.455200 2131.789795,1658.114380 2131.789307,1655.781372 
	C2131.739014,1423.136719 2131.687500,1190.492065 2131.633057,957.847473 
	C2131.632324,955.181335 2131.817627,952.487488 2131.496582,949.857849 
	C2131.247070,947.811829 2130.343262,945.845642 2129.227539,942.202271 
	C2125.119873,946.329346 2122.029297,949.240723 2119.154541,952.351746 
	C2064.881836,1011.087769 2010.653809,1069.865356 1956.375366,1128.596191 
	C1913.403931,1175.092163 1870.364990,1221.525635 1827.380737,1268.009766 
	C1809.508789,1287.336670 1791.975952,1306.987549 1773.728760,1325.952148 
	C1766.454956,1333.511963 1763.983154,1341.525269 1764.006958,1351.867065 
	C1764.305664,1481.854126 1764.230103,1611.842163 1764.230713,1741.829834 
	C1764.230713,1747.493164 1764.040161,1753.156616 1762.278198,1758.820312 
	C1738.793457,1759.839966 1715.312744,1760.065918 1690.552979,1759.938110 
	C1690.552979,1753.887695 1690.552002,1749.299805 1690.552979,1744.711914 
	C1690.582153,1620.753784 1690.622559,1496.795776 1690.599365,1372.837646 
	C1690.598511,1368.025513 1689.988403,1363.213501 1689.682495,1358.701050 
	C1675.597412,1356.677979 930.599182,1357.348267 922.256409,1359.413818 
	C922.080139,1363.375488 921.730774,1367.617065 921.727234,1371.858887 
	C921.683838,1423.508057 921.707336,1475.157349 921.655457,1526.806519 
	C921.651184,1531.004150 921.221619,1535.201294 920.967896,1539.792358 
	C895.995911,1539.792358 872.157776,1539.792358 847.539368,1539.792358 
	C847.253906,1534.875122 846.799377,1530.625854 846.792114,1526.375977 
	C846.703186,1474.726929 846.699768,1423.077881 846.603394,1371.428955 
	C846.595581,1367.230835 846.069275,1363.033813 845.703125,1357.648071 
	C839.882935,1357.648071 834.963196,1357.648193 830.043396,1357.648193 
	C608.784790,1357.648071 387.526215,1357.652100 166.267609,1357.620117 
	C161.395218,1357.619385 156.522888,1357.204346 150.286316,1356.920532 
	C150.286316,1351.026001 150.282120,1346.121460 150.287064,1341.217041 
	C150.306152,1322.240967 150.328156,1303.264771 152.179962,1284.251343 
	C383.382416,1284.006348 614.584839,1283.761230 846.573242,1283.515381 
	C846.573242,1136.755981 846.573242,991.025635 846.573242,844.192444 
	C841.912842,844.192444 837.994446,844.191711 834.076050,844.192505 
	C725.097046,844.214172 616.117920,844.317871 507.139465,844.089539 
	C499.147217,844.072754 493.594513,846.422913 487.962280,852.058289 
	C357.208679,982.883301 226.271973,1113.525391 95.374161,1244.206421 
	C78.156815,1261.395142 78.169022,1261.407349 77.882202,1287.777954 
	C77.836464,1292.442627 77.751076,1297.107300 77.750786,1301.771973 
	C77.743446,1421.410034 77.740959,1541.048218 77.746002,1660.686279 
	C77.752327,1810.650391 77.758781,1960.614502 77.809509,2110.578613 
	C77.811150,2115.424316 78.298241,2120.270264 78.577881,2125.466309 
	C334.806732,2125.466309 589.899231,2125.466309 845.953552,2125.466309 
	C846.202698,2119.907959 846.610168,2115.017822 846.613464,2110.127197 
	C846.688965,1998.487305 846.709412,1886.847534 846.796509,1775.207642 
	C846.800293,1770.373535 847.340027,1765.539795 847.677002,1759.924316 
	C872.696411,1759.820312 896.509827,1759.569458 921.050659,1759.899536 
	C921.309753,1764.855469 921.646912,1768.435303 921.658691,1772.016113 
	C921.715881,1789.345093 921.686157,1806.674316 921.686279,1824.003540 
	C921.686707,1919.980591 921.674561,2015.957764 921.725464,2111.934814 
	C921.727844,2116.423096 922.291443,2120.911133 922.575378,2125.128418 
	C938.653442,2127.280273 1681.806274,2126.494141 1690.289307,2124.160645 
	C1690.849854,2026.718872 1690.238037,1928.926880 1690.828125,1830.171387 
	C1716.054321,1829.540894 1739.944702,1828.943848 1764.018433,1830.167358 
M2077.162842,182.162735 
	C2011.822998,247.377548 1946.483521,312.592712 1881.143188,377.807007 
	C1845.760376,413.121521 1810.528442,448.589783 1774.858521,483.612000 
	C1768.082397,490.265015 1764.476196,497.144196 1765.666870,506.506989 
	C1765.833740,507.818787 1765.688477,509.170197 1765.688721,510.503296 
	C1765.733398,742.126587 1765.777954,973.749878 1765.823853,1205.373169 
	C1765.824341,1208.039307 1765.654663,1210.723877 1765.912842,1213.365723 
	C1766.116943,1215.453979 1766.856934,1217.489746 1767.716675,1221.016724 
	C1771.344116,1217.448120 1774.004883,1215.033325 1776.437378,1212.407227 
	C1808.361450,1177.941406 1840.233887,1143.427734 1872.158447,1108.962158 
	C1900.461182,1078.406494 1928.850464,1047.931030 1957.133667,1017.357361 
	C2011.435547,958.657776 2065.506104,899.742371 2120.155762,841.368713 
	C2128.560547,832.391174 2132.063232,823.451294 2131.957275,811.225708 
	C2131.140625,716.926697 2130.807129,622.622803 2130.537109,528.319824 
	C2130.329834,456.000610 2130.433838,383.680450 2130.396973,311.360718 
	C2130.368652,255.704514 2130.346680,200.048279 2130.282227,144.392120 
	C2130.277832,140.589401 2129.939209,136.787094 2129.755859,132.984589 
	C2128.963623,132.674957 2128.171143,132.365311 2127.378662,132.055679 
	C2110.914307,148.362991 2094.570068,164.795761 2077.162842,182.162735 
z"/>


<path fill="#D5D5D5" opacity="1.000000" stroke="none" 
	d="
M1332.882324,3.953279 
	C1331.942993,3.894256 1332.009277,2.948265 1332.004639,2.474133 
	C1476.708496,2.000000 1621.416870,2.000000 1767.062744,1.999997 
	C1763.554443,2.663549 1759.109375,3.903663 1754.663208,3.906966 
	C1616.715210,4.009463 1478.767090,3.990995 1340.818970,3.992188 
	C1338.486572,3.992208 1336.154053,4.005307 1332.882324,3.953279 
z"/>
<path fill="#D6DAE0" opacity="1.000000" stroke="none" 
	d="
M150.349075,1284.288696 
	C150.328156,1303.264771 150.306152,1322.240967 150.287064,1341.217041 
	C150.282120,1346.121460 150.286316,1351.026001 150.286316,1356.920532 
	C156.522888,1357.204346 161.395218,1357.619385 166.267609,1357.620117 
	C387.526215,1357.652100 608.784790,1357.648071 830.043396,1357.648193 
	C834.963196,1357.648193 839.882935,1357.648071 845.703125,1357.648071 
	C846.069275,1363.033813 846.595581,1367.230835 846.603394,1371.428955 
	C846.699768,1423.077881 846.703186,1474.726929 846.792114,1526.375977 
	C846.799377,1530.625854 847.253906,1534.875122 847.539368,1539.792358 
	C872.157776,1539.792358 895.995911,1539.792358 920.967896,1539.792358 
	C921.221619,1535.201294 921.651184,1531.004150 921.655457,1526.806519 
	C921.707336,1475.157349 921.683838,1423.508057 921.727234,1371.858887 
	C921.730774,1367.617065 922.080139,1363.375488 922.256409,1359.413818 
	C930.599182,1357.348267 1675.597412,1356.677979 1689.682495,1358.701050 
	C1689.988403,1363.213501 1690.598511,1368.025513 1690.599365,1372.837646 
	C1690.622559,1496.795776 1690.582153,1620.753784 1690.552979,1744.711914 
	C1690.552002,1749.299805 1690.552979,1753.887695 1690.552979,1759.938110 
	C1715.312744,1760.065918 1738.793457,1759.839966 1763.252808,1759.591064 
	C1767.633667,1781.736694 1766.516846,1803.180298 1765.133789,1824.621094 
	C1765.052368,1825.885620 1764.283936,1827.105835 1763.835205,1828.346680 
	C1739.944702,1828.943848 1716.054321,1829.540894 1690.828125,1830.171387 
	C1690.238037,1928.926880 1690.849854,2026.718872 1690.289307,2124.160645 
	C1681.806274,2126.494141 938.653442,2127.280273 922.575378,2125.128418 
	C922.291443,2120.911133 921.727844,2116.423096 921.725464,2111.934814 
	C921.674561,2015.957764 921.686707,1919.980591 921.686279,1824.003540 
	C921.686157,1806.674316 921.715881,1789.345093 921.658691,1772.016113 
	C921.646912,1768.435303 921.309753,1764.855469 921.050659,1759.899536 
	C896.509827,1759.569458 872.696411,1759.820312 847.677002,1759.924316 
	C847.340027,1765.539795 846.800293,1770.373535 846.796509,1775.207642 
	C846.709412,1886.847534 846.688965,1998.487305 846.613464,2110.127197 
	C846.610168,2115.017822 846.202698,2119.907959 845.953552,2125.466309 
	C589.899231,2125.466309 334.806732,2125.466309 78.577881,2125.466309 
	C78.298241,2120.270264 77.811150,2115.424316 77.809509,2110.578613 
	C77.758781,1960.614502 77.752327,1810.650391 77.746002,1660.686279 
	C77.740959,1541.048218 77.743446,1421.410034 77.750786,1301.771973 
	C77.751076,1297.107300 77.836464,1292.442627 78.967163,1286.882568 
	C83.686234,1286.006104 87.323181,1286.127197 90.953972,1286.026489 
	C110.753174,1285.477295 130.550858,1284.873657 150.349075,1284.288696 
M846.548401,1619.870728 
	C846.474731,1642.080322 846.285889,1664.292358 846.458130,1686.108154 
	C858.479431,1688.993164 913.852051,1688.483276 920.913757,1685.793457 
	C922.896851,1671.459106 922.172241,1620.426025 919.531555,1612.407837 
	C897.314026,1612.407837 874.729431,1612.401611 852.144836,1612.413818 
	C848.412109,1612.415894 846.810547,1614.572876 846.548401,1619.870728 
z"/>
<path fill="#D6DAE0" opacity="1.000000" stroke="none" 
	d="
M1176.078979,501.984192 
	C1178.581055,513.293396 1186.109253,514.851501 1196.652222,514.825439 
	C1355.963989,514.431641 1515.276978,514.467712 1674.589600,514.442749 
	C1679.479370,514.442017 1684.369141,514.868347 1689.922607,515.126465 
	C1689.922607,770.891296 1689.922607,1025.702026 1689.922607,1281.624146 
	C1685.364746,1281.983154 1681.195801,1282.589722 1677.025879,1282.596924 
	C1635.364746,1282.668457 1593.703369,1282.647583 1552.042114,1282.640869 
	C1347.401855,1282.608276 1142.761719,1282.571899 938.121460,1282.536865 
	C933.210510,1282.536011 928.299500,1282.536743 922.425293,1282.536743 
	C922.139709,1276.397827 921.715210,1271.522705 921.714539,1266.647583 
	C921.682068,1026.345215 921.682800,786.042847 921.694092,545.740479 
	C921.694763,531.744263 921.813660,517.748108 922.975220,502.796021 
	C959.166077,501.828522 994.259338,501.816956 1029.647827,502.512024 
	C1034.604492,515.121765 1034.604370,515.148743 1047.016846,515.179993 
	C1060.307129,515.213379 1073.597534,515.194946 1086.887939,515.188049 
	C1101.410522,515.180603 1101.410522,515.175049 1107.542236,501.776489 
	C1130.985596,501.828003 1153.532227,501.906097 1176.078979,501.984192 
z"/>
<path fill="#FFFFFF" opacity="1.000000" stroke="none" 
	d="
M1029.352539,501.805359 
	C994.259338,501.816956 959.166077,501.828522 923.150635,501.865784 
	C923.339172,492.439392 928.683716,485.354584 935.131897,478.907990 
	C962.710022,451.336884 990.294922,423.772461 1017.888062,396.216370 
	C1121.421265,292.822021 1224.994019,189.467178 1328.393555,85.939316 
	C1333.749268,80.577003 1339.129883,78.330040 1346.724487,78.306702 
	C1584.700195,77.575356 1822.675293,76.634094 2060.650391,75.727394 
	C2064.921631,75.711121 2069.193115,75.725357 2075.180420,75.725357 
	C2072.577637,78.968437 2071.196045,81.058861 2069.461670,82.797562 
	C1952.475342,200.077271 1835.431030,317.299103 1718.559937,434.693481 
	C1714.010132,439.263794 1709.317261,440.199524 1703.440186,440.197632 
	C1577.451660,440.157379 1451.463257,440.227203 1325.474731,440.269348 
	C1280.145508,440.284515 1234.816406,440.283112 1189.487183,440.289093 
	C1185.911133,440.289581 1182.335083,440.289185 1177.623291,440.289185 
	C1177.168457,460.996277 1176.738647,480.560516 1176.193970,501.054474 
	C1153.532227,501.906097 1130.985596,501.828003 1107.427856,500.858765 
	C1105.604126,480.227905 1106.263062,460.418610 1104.958618,440.689941 
	C1079.561035,440.689941 1055.502319,440.689941 1030.608765,440.689941 
	C1030.180786,461.509430 1029.766724,481.657379 1029.352539,501.805359 
z"/>
<path fill="#A1ABBC" opacity="1.000000" stroke="none" 
	d="
M1763.926758,1829.257080 
	C1764.283936,1827.105835 1765.052368,1825.885620 1765.133789,1824.621094 
	C1766.516846,1803.180298 1767.633667,1781.736694 1764.082886,1759.590820 
	C1764.040161,1753.156616 1764.230713,1747.493164 1764.230713,1741.829834 
	C1764.230103,1611.842163 1764.305664,1481.854126 1764.006958,1351.867065 
	C1763.983154,1341.525269 1766.454956,1333.511963 1773.728760,1325.952148 
	C1791.975952,1306.987549 1809.508789,1287.336670 1827.380737,1268.009766 
	C1870.364990,1221.525635 1913.403931,1175.092163 1956.375366,1128.596191 
	C2010.653809,1069.865356 2064.881836,1011.087769 2119.154541,952.351746 
	C2122.029297,949.240723 2125.119873,946.329346 2129.227539,942.202271 
	C2130.343262,945.845642 2131.247070,947.811829 2131.496582,949.857849 
	C2131.817627,952.487488 2131.632324,955.181335 2131.633057,957.847473 
	C2131.687500,1190.492065 2131.739014,1423.136719 2131.789307,1655.781372 
	C2131.789795,1658.114380 2131.648193,1660.455200 2131.790283,1662.778931 
	C2132.137939,1668.464844 2130.048096,1672.924927 2126.144043,1677.113159 
	C2102.287598,1702.706299 2078.618408,1728.473999 2054.875732,1754.172974 
	C2013.947632,1798.473511 1972.995972,1842.752319 1932.082520,1887.066162 
	C1879.416016,1944.110229 1826.784424,2001.186646 1774.101440,2058.215576 
	C1771.999878,2060.490723 1769.526123,2062.421875 1765.272461,2066.289062 
	C1764.886963,2059.472900 1764.449463,2055.305420 1764.445679,2051.137207 
	C1764.385010,1983.143677 1764.387329,1915.150024 1764.346558,1847.156494 
	C1764.343140,1841.493408 1764.132690,1835.830444 1763.926758,1829.257080 
z"/>
<path fill="#A1ABBC" opacity="1.000000" stroke="none" 
	d="
M2077.663818,181.663712 
	C2094.570068,164.795761 2110.914307,148.362991 2127.378662,132.055679 
	C2128.171143,132.365311 2128.963623,132.674957 2129.755859,132.984589 
	C2129.939209,136.787094 2130.277832,140.589401 2130.282227,144.392120 
	C2130.346680,200.048279 2130.368652,255.704514 2130.396973,311.360718 
	C2130.433838,383.680450 2130.329834,456.000610 2130.537109,528.319824 
	C2130.807129,622.622803 2131.140625,716.926697 2131.957275,811.225708 
	C2132.063232,823.451294 2128.560547,832.391174 2120.155762,841.368713 
	C2065.506104,899.742371 2011.435547,958.657776 1957.133667,1017.357361 
	C1928.850464,1047.931030 1900.461182,1078.406494 1872.158447,1108.962158 
	C1840.233887,1143.427734 1808.361450,1177.941406 1776.437378,1212.407227 
	C1774.004883,1215.033325 1771.344116,1217.448120 1767.716675,1221.016724 
	C1766.856934,1217.489746 1766.116943,1215.453979 1765.912842,1213.365723 
	C1765.654663,1210.723877 1765.824341,1208.039307 1765.823853,1205.373169 
	C1765.777954,973.749878 1765.733398,742.126587 1765.688721,510.503296 
	C1765.688477,509.170197 1765.833740,507.818787 1765.666870,506.506989 
	C1764.476196,497.144196 1768.082397,490.265015 1774.858521,483.612000 
	C1810.528442,448.589783 1845.760376,413.121521 1881.143188,377.807007 
	C1946.483521,312.592712 2011.822998,247.377548 2077.663818,181.663712 
z"/>
<path fill="#FFFEFE" opacity="1.000000" stroke="none" 
	d="
M151.264526,1284.270020 
	C130.550858,1284.873657 110.753174,1285.477295 90.953972,1286.026489 
	C87.323181,1286.127197 83.686234,1286.006104 79.128647,1285.951904 
	C78.169022,1261.407349 78.156815,1261.395142 95.374161,1244.206421 
	C226.271973,1113.525391 357.208679,982.883301 487.962280,852.058289 
	C493.594513,846.422913 499.147217,844.072754 507.139465,844.089539 
	C616.117920,844.317871 725.097046,844.214172 834.076050,844.192505 
	C837.994446,844.191711 841.912842,844.192444 846.573242,844.192444 
	C846.573242,991.025635 846.573242,1136.755981 846.573242,1283.515381 
	C614.584839,1283.761230 383.382416,1284.006348 151.264526,1284.270020 
z"/>
<path fill="#828282" opacity="1.000000" stroke="none" 
	d="
M379.959198,365.648560 
	C388.887329,365.647858 396.820435,365.647858 406.153870,365.647858 
	C406.153870,341.029053 406.153870,317.286774 406.153870,292.950317 
	C432.025177,292.950317 456.476196,292.950317 481.993500,292.950317 
	C481.993500,316.852051 481.993500,340.350159 481.993500,365.221222 
	C506.730072,365.717590 530.471863,366.194031 554.923096,366.684662 
	C554.923096,391.473755 554.923096,415.627136 554.923096,440.833984 
	C531.440247,442.943726 507.636688,442.119537 482.522827,442.464508 
	C482.522827,466.993958 482.522827,490.748566 482.522827,515.072754 
	C456.659088,515.072754 432.202789,515.072754 406.674744,515.072754 
	C406.674744,491.112122 406.674744,467.608124 406.674744,442.660309 
	C397.837433,442.549225 390.014008,442.410126 382.190033,442.363708 
	C373.863464,442.314301 365.536438,442.352600 357.209595,442.352600 
	C349.313019,442.352600 341.416473,442.352600 332.938232,442.352600 
	C332.938232,416.651703 332.938232,392.194366 332.938232,366.782959 
	C348.576752,366.397736 363.770477,366.023499 379.959198,365.648560 
z"/>
<path fill="#838383" opacity="1.000000" stroke="none" 
	d="
M846.588440,1618.972656 
	C846.810547,1614.572876 848.412109,1612.415894 852.144836,1612.413818 
	C874.729431,1612.401611 897.314026,1612.407837 919.531555,1612.407837 
	C922.172241,1620.426025 922.896851,1671.459106 920.913757,1685.793457 
	C913.852051,1688.483276 858.479431,1688.993164 846.458130,1686.108154 
	C846.285889,1664.292358 846.474731,1642.080322 846.588440,1618.972656 
z"/>
<path fill="#838383" opacity="1.000000" stroke="none" 
	d="
M1029.647827,502.512024 
	C1029.766724,481.657379 1030.180786,461.509430 1030.608765,440.689941 
	C1055.502319,440.689941 1079.561035,440.689941 1104.958618,440.689941 
	C1106.263062,460.418610 1105.604126,480.227905 1106.531250,500.885376 
	C1101.410522,515.175049 1101.410522,515.180603 1086.887939,515.188049 
	C1073.597534,515.194946 1060.307129,515.213379 1047.016846,515.179993 
	C1034.604370,515.148743 1034.604492,515.121765 1029.647827,502.512024 
z"/>
</svg>